<?xml version="1.0" encoding="iso-8859-1"?>
<!-- Uploaded to: SVG Repo, www.svgrepo.com, Generator: SVG Repo Mixer Tools -->
<svg xmlns="http://www.w3.org/2000/svg" xmlns:xlink="http://www.w3.org/1999/xlink" version="1.1" id="Layer_1"  viewBox="0 0 502 502" xml:space="preserve" width="512" height="512">
<g>
	<polygon style="fill:#E6E6E6;" points="335.968,436.383 346.267,454.921 346.267,492 94.968,492 94.968,454.921 106.297,436.383     "/>
	<g>
		<path style="fill:#E6E6E6;" d="M382.314,413.727h-115.35c-11.376,0-20.598-9.222-20.598-20.598V162.427    c0-11.376,9.222-20.598,20.598-20.598h115.35c31.803,0,57.675,25.873,57.675,57.675v156.547    C439.989,387.854,414.117,413.727,382.314,413.727z M287.562,372.53h94.752c9.086,0,16.479-7.392,16.479-16.479V199.504    c0-9.086-7.392-16.479-16.479-16.479h-94.752V372.53z"/>
	</g>
	<polygon style="fill:#FBB03B;" points="106.297,436.383 94.968,105.782 346.267,105.782 335.968,436.383  "/>
	<path style="fill:#E6E6E6;" d="M346.782,105.782c18.486,0,33.472-14.986,33.472-33.472s-14.986-33.472-33.472-33.472   c-3.49,0-6.855,0.536-10.018,1.527C329.767,22.588,312.457,10,292.197,10c-17.866,0-33.436,9.791-41.668,24.293   c-7.682-7.986-18.47-12.963-30.426-12.963c-12.998,0-24.62,5.877-32.366,15.115C179.868,20.766,163.655,10,144.919,10   c-19.841,0-36.864,12.066-44.132,29.26c-1.728-0.275-3.499-0.422-5.304-0.422c-18.486,0-33.472,14.986-33.472,33.472   s14.986,33.472,33.472,33.472H346.782z"/>
</g>
<g>
	<path d="M382.314,131.829h-26.854l0.531-17.038c19.561-4.237,34.262-21.671,34.262-42.481c0-23.971-19.501-43.472-43.472-43.472   c-1.466,0-2.925,0.073-4.374,0.219C332.198,11.168,313.284,0,292.196,0c-16.831,0-32.685,7.373-43.565,19.791   c-8.4-5.511-18.215-8.462-28.528-8.462c-11.058,0-21.662,3.477-30.449,9.793C178.807,7.859,162.569,0,144.919,0   c-20.87,0-39.828,11.113-50.093,28.843C71.158,29.195,52.011,48.559,52.011,72.31c0,20.45,14.198,37.637,33.252,42.248   L96.2,433.729l-9.765,15.978c-0.959,1.57-1.467,3.375-1.467,5.215V492c0,5.522,4.477,10,10,10h251.3c5.522,0,10-4.478,10-10   v-37.079c0-1.699-0.434-3.371-1.259-4.857l-8.96-16.126l0.318-10.211h35.948c37.316,0,67.675-30.358,67.675-67.675V199.504   C449.989,162.188,419.631,131.829,382.314,131.829z M105.316,115.782h230.635l-9.677,310.602H115.96L105.316,115.782z    M353.554,193.025h28.76c3.572,0,6.479,2.906,6.479,6.479v156.548c0,3.572-2.906,6.479-6.479,6.479h-34.041L353.554,193.025z    M72.011,72.31c0-12.942,10.53-23.472,23.472-23.472c1.233,0,2.49,0.101,3.736,0.298c4.545,0.728,8.989-1.747,10.779-5.982   C115.943,29.088,129.65,20,144.919,20c14.419,0,27.401,8.02,33.88,20.93c1.51,3.009,4.433,5.057,7.777,5.447   c3.349,0.383,6.661-0.929,8.823-3.508c6.149-7.334,15.153-11.54,24.703-11.54c8.834,0,17.081,3.515,23.219,9.896   c2.188,2.273,5.32,3.382,8.453,2.989c3.131-0.393,5.894-2.241,7.451-4.985C265.958,27.368,278.591,20,292.196,20   c15.676,0,29.518,9.431,35.263,24.027c1.921,4.881,7.285,7.45,12.295,5.879c2.264-0.709,4.628-1.068,7.028-1.068   c12.942,0,23.472,10.529,23.472,23.472s-10.529,23.473-23.472,23.473h-0.515H95.483C82.541,95.782,72.011,85.252,72.011,72.31z    M336.268,482h-231.3v-24.266l6.937-11.351h218.179l6.184,11.129V482z M429.989,356.052c0,26.288-21.387,47.675-47.675,47.675   H346.99l0.66-21.196h34.664c14.601,0,26.479-11.878,26.479-26.479V199.504c0-14.601-11.878-26.479-26.479-26.479h-28.137   l0.66-21.196h27.477c26.288,0,47.675,21.387,47.675,47.675V356.052z"/>
	<path d="M219.587,151.397c-5.523,0-10,4.478-10,10v223.491c0,5.522,4.477,10,10,10s10-4.478,10-10V161.397   C229.587,155.875,225.11,151.397,219.587,151.397z"/>
	<path d="M157.793,151.397c-5.523,0-10,4.478-10,10v223.491c0,5.522,4.477,10,10,10s10-4.478,10-10V161.397   C167.793,155.875,163.316,151.397,157.793,151.397z"/>
	<path d="M282.412,151.397c-5.522,0-10,4.478-10,10v223.491c0,5.522,4.478,10,10,10s10-4.478,10-10V161.397   C292.412,155.875,287.935,151.397,282.412,151.397z"/>
</g>















</svg>